<svg version="1.1" xmlns="http://www.w3.org/2000/svg" style="display: block;" viewBox="0 0 2048 2048" width="512" height="512">
<defs>
	<linearGradient id="Gradient1" gradientUnits="userSpaceOnUse" x1="1730.85" y1="1402.97" x2="1350.64" y2="1469.72">
		<stop class="stop0" offset="0" stop-opacity="1" stop-color="rgb(245,106,73)"/>
		<stop class="stop1" offset="1" stop-opacity="1" stop-color="rgb(255,144,108)"/>
	</linearGradient>
	<linearGradient id="Gradient2" gradientUnits="userSpaceOnUse" x1="825.01" y1="736.638" x2="849.077" y2="736.49">
		<stop class="stop0" offset="0" stop-opacity="1" stop-color="rgb(255,236,221)"/>
		<stop class="stop1" offset="1" stop-opacity="1" stop-color="rgb(255,249,253)"/>
	</linearGradient>
	<linearGradient id="Gradient3" gradientUnits="userSpaceOnUse" x1="1018.03" y1="777.401" x2="1012.83" y2="561.811">
		<stop class="stop0" offset="0" stop-opacity="1" stop-color="rgb(253,142,80)"/>
		<stop class="stop1" offset="1" stop-opacity="1" stop-color="rgb(254,181,87)"/>
	</linearGradient>
</defs>
<path transform="translate(0,0)" fill="rgb(39,54,75)" d="M 998.037 515.567 C 1109.61 508.093 1196.94 598.577 1203.36 707.074 C 1225.89 714.295 1237.34 737.502 1229.18 759.895 C 1222.36 778.587 1202.66 784.964 1186.11 792.506 C 1187.28 801.104 1187.07 810.154 1189.44 818.506 L 1191.18 819.075 C 1205.9 817.135 1222.64 807.708 1235.93 801.034 C 1322.26 757.672 1401.36 684.125 1444.25 596.55 C 1449.93 584.947 1455.05 564.481 1464.02 555.727 C 1486.59 533.701 1527.36 544.19 1546.71 565.087 C 1567.32 587.345 1564.1 615.619 1562.81 643.585 C 1616.35 669.937 1612.9 746.438 1591.02 792.506 C 1643.76 836.874 1624.88 907.258 1579.88 950.528 C 1633.41 1006.95 1591.01 1062.04 1537.02 1095.16 C 1584.9 1168.77 1513.52 1200.33 1450.64 1209.95 C 1461.24 1235.81 1464.56 1263.9 1439.81 1282.93 C 1412.93 1303.61 1321 1305.85 1283.82 1300.98 L 1283.94 1357.44 C 1283.96 1375.91 1286.51 1397.76 1274.76 1413.55 C 1249.59 1447.36 1197.16 1433.56 1193.83 1387.92 C 1193.23 1379.72 1189.72 1345.03 1204.99 1346.81 C 1225.47 1349.19 1205.4 1386.17 1221.48 1403.78 C 1231.27 1414.51 1246.43 1413.71 1256.14 1403.31 C 1269.26 1389.25 1263.12 1344.04 1263.07 1326.16 L 1263.02 1205.01 C 1238.89 1203.52 1213.9 1204.96 1189.69 1205.01 L 1189.75 1271.66 C 1189.78 1301.91 1194.94 1324.02 1168.98 1345.21 C 1196.76 1389.91 1183.03 1423.24 1154.98 1464.57 L 1155.1 1692.17 C 1155.15 1703.12 1155.94 1714.76 1153.88 1725.55 C 1145.22 1771.06 1086.43 1788.91 1054.02 1756.55 C 1035.61 1738.18 1035.89 1712.09 1034.55 1687.93 L 1027.59 1531.45 C 1026.41 1505.73 1024.5 1480.15 1024.9 1454.37 C 1024.52 1448.59 1023.82 1442.79 1023.25 1437.02 C 1016.01 1436.46 1008.84 1436.77 1001.6 1437.02 C 1002.5 1464.75 999.799 1492.82 998.384 1520.52 L 991.95 1646.52 C 989.898 1680.43 997.09 1728.39 971.596 1755.4 C 941.282 1787.51 880.094 1771.84 871.224 1728.27 C 866.806 1706.57 869.411 1665.65 869.397 1642.27 L 869.382 1458.11 C 847.295 1428.18 838.285 1376.29 862.662 1345.21 C 829.551 1313.82 842.5 1249.68 842.551 1205.01 L 765.428 1205.01 L 765.367 1327.7 C 765.344 1349.47 755.216 1422.11 799.775 1408.32 C 830.398 1398.85 809.646 1367.08 818.83 1351.59 C 825.513 1340.32 837.702 1347.93 838.711 1359.39 C 846.51 1448.01 761.461 1448.04 746.913 1394.53 C 742.339 1377.7 744.942 1321.33 744.99 1300.98 C 684.066 1301.09 553.533 1321.06 590.917 1214.36 C 530.03 1208.93 452.474 1158.31 494.54 1091.73 C 450.881 1061.9 393.898 996.596 451.191 950.528 C 412.9 898.314 392.022 843.067 443.499 792.506 C 418.81 738.332 412.249 673.839 475.681 647.173 C 472.106 628.616 468.05 609.39 474.152 590.849 C 485.647 555.916 530.817 534.283 562.063 559.133 C 576.967 570.985 592.118 607.902 603.889 625.846 C 652.271 699.599 750.549 790.416 838.044 817.939 C 838.054 810.136 837.007 802.874 838.044 795.043 C 789.224 782.527 774.182 735.879 817.399 707.074 C 821.74 693.806 823.25 679.639 826.307 666.028 C 844.504 585.014 915.373 523.319 998.037 515.567 z M 1095.61 978.6 C 1114.58 980.658 1134.02 987.073 1151.94 993.445 C 1158.58 975.601 1245.98 932.659 1265.82 923.693 C 1321.08 898.717 1384.18 964.732 1403.57 1008.42 C 1432.54 1073.73 1344.25 1205.44 1308.06 1261.87 C 1301.89 1271.48 1292.4 1278.49 1303.27 1280.49 L 1349.91 1280.61 C 1392.01 1280.78 1465.77 1279.82 1427.75 1214.36 C 1415.77 1215.36 1392.15 1220.44 1392.86 1202.48 C 1393.63 1183.09 1480.69 1201.56 1519.63 1162.95 C 1538.44 1144.29 1534.41 1121.77 1516.78 1104.1 C 1509.26 1106.41 1430.39 1134.87 1436.51 1105.87 C 1447.58 1087.23 1566.52 1094.58 1582.16 1016.99 C 1586.27 996.625 1576.92 981.509 1566.25 965.347 L 1563.18 967.949 C 1549.81 979.095 1492.72 1016.37 1474.75 1014.01 C 1444.85 1010.09 1493.78 984.874 1496.13 983.569 C 1512.79 919.205 1581.7 896.624 1601.04 852.684 C 1600.14 834.538 1593.67 823.413 1579.88 812.588 C 1555.44 851.432 1530.47 875.881 1492.62 901.312 C 1488.47 904.1 1451.79 928.703 1452.62 908.297 C 1453.3 891.419 1565.05 845.244 1582.9 753.052 C 1587.64 728.572 1587.61 673.415 1554.86 666.964 C 1517.44 742.642 1501.09 775.632 1425.71 827.541 C 1418.51 832.497 1393.86 851.943 1390.36 833.185 C 1388.26 821.862 1430.58 798.261 1439.68 790.853 C 1487.93 751.587 1550.41 671.97 1544.08 609.111 C 1541.3 581.52 1520.62 561.437 1492 565.189 C 1473.67 567.594 1472.05 585.445 1465.92 599.928 C 1421 705.936 1296.75 807.829 1189.69 841.996 C 1170.41 914.265 1152.71 936.969 1095.61 978.6 z M 629.48 824.232 C 637.443 839.205 621.667 842.632 606.353 832.496 C 562.516 803.479 493.471 719.481 482.553 666.964 C 442.826 678.711 441.185 721.876 451.191 756.321 C 459.836 765.683 465.305 799.224 464.439 777.919 C 464.124 770.182 465.809 767.914 462.261 760.511 L 462.423 759.108 C 486.112 801.338 513.211 841.848 551.473 872.503 C 561.314 880.387 576.664 889.059 574.348 903.839 C 576.994 908.424 576.762 915.155 572.617 918.844 C 550.916 938.155 472.34 840.373 454.263 812.588 C 430.644 829.6 426.587 869.561 443.499 892.676 C 447.752 898.651 447.839 908.202 453.492 912.826 C 453.472 905.722 455.775 901.356 450.685 895.373 L 448.387 892.647 L 448.508 891.642 C 457.455 900.603 476.768 922.059 482.553 932.623 C 496.56 944.571 510.609 958.786 526.31 968.382 C 541.768 977.831 565.91 981.157 564.835 998.976 C 567.135 1005.54 569.448 1017.96 559.777 1019.32 C 534.986 1022.8 484.515 980.504 464.601 961.051 C 447.288 979.998 446.877 998.991 454.263 1021.91 C 466.713 1046.41 484.611 1062.88 508.238 1076.49 C 510.711 1076.7 512.718 1075.81 515 1075 L 515.375 1073.77 C 501.538 1062.29 470.762 1046.21 469.437 1025.97 C 492.981 1047.06 514.959 1064.8 545.657 1074.4 C 557.493 1078.1 581.075 1079.02 580.522 1095.16 C 593.814 1095.88 602.364 1108.98 592.563 1114.73 C 577.589 1123.52 530.078 1105.33 511.481 1104.1 C 501.1 1117.87 502.399 1127.08 508.238 1142.01 C 509.03 1145.63 509.674 1148.88 511.481 1152.14 C 517.145 1150.58 513.269 1146.28 515.432 1142.01 C 551.738 1175.55 629.081 1180.21 633.082 1195.04 C 654.027 1211.51 628.065 1217.21 613.684 1217.02 C 605.777 1228.73 602.919 1238.01 603.503 1252.2 C 612.335 1251.08 677.797 1268.49 696.185 1270.59 C 694.776 1271.02 672.379 1275.32 670.748 1275.46 C 683.006 1281.01 695.678 1277.04 708.082 1280.49 C 720.408 1280.08 732.663 1280.23 744.99 1280.49 L 744.99 1252.2 C 741.453 1239.97 652.873 1198.65 634.997 1087.99 C 608.485 923.867 771.118 863.776 889.203 957.193 C 899.773 965.555 895.54 978.746 903.961 983.569 C 912.039 980.427 920.092 977.829 928.441 975.504 C 875.6 950.038 847.135 898.609 838.044 841.996 C 828.951 836.932 818.981 833.232 809.466 829.023 C 714.854 787.176 620.008 701.248 571.565 611.385 C 565.266 599.7 559.283 579.626 546.972 572.767 C 530.5 563.591 505.614 572.056 496.858 588.351 C 486.634 607.378 493.301 635.032 498.983 654.492 C 502.667 649.093 505.156 645.65 505.745 638.909 L 506.552 638.598 C 512.929 670.433 569.595 749.811 591.611 772.949 C 611.019 793.347 631.84 795.781 629.48 824.232 z M 1106.98 1472.48 C 1108.56 1492.35 1107.02 1512.39 1106.99 1532.31 L 1106.93 1655.02 C 1106.93 1668.89 1101.56 1713.53 1112.73 1723.43 C 1120.22 1730.07 1126.81 1718.26 1134.02 1727.07 C 1135.44 1711.17 1134.04 1689.77 1134.04 1673.35 L 1134.07 1490.61 C 1134.11 1482.24 1135.35 1472.76 1134.02 1464.57 C 1124.15 1466.16 1115.88 1467.77 1106.98 1472.48 z M 852.169 717.641 C 859.932 676.799 888.55 627.783 919.176 600.27 C 924.369 595.605 945.006 580.918 947.435 577.299 C 946.576 568.259 946.295 560.14 947.435 551.093 C 875.986 571.419 841.819 655.19 838.044 722.806 C 843.347 730.836 848.484 723.235 852.169 717.641 z M 1168.98 795.043 L 857.006 795.043 C 855.07 840.621 863.245 890.457 895.049 925.422 C 954.459 990.738 1058.51 996.601 1121.13 932.623 C 1160.2 891.27 1168.44 850.014 1168.98 795.043 z M 788.956 1183.99 C 787.877 1131.7 800.295 1079.56 851.007 1053.3 C 850.722 1048.43 850.88 1043.57 851.007 1038.69 L 851.007 1021.91 C 771.624 1053.63 740.829 1185.97 777.455 1183.99 C 781.303 1183.44 785.096 1183.77 788.956 1183.99 z M 1242.32 1183.99 C 1249.24 1184.2 1256.09 1184.3 1263.02 1183.99 C 1266.79 1117.27 1238.42 1051.33 1174.98 1021.91 C 1175.3 1031.31 1175.09 1040.72 1174.98 1050.12 C 1222.56 1068.52 1247.31 1135.6 1242.32 1183.99 z M 880.155 1352.13 C 863.392 1377.39 866.486 1413.65 880.734 1439.47 C 888.717 1453.93 900.158 1455.51 889.88 1472.48 L 889.785 1697.99 C 889.754 1706.22 889.047 1715.08 889.88 1723.23 C 896.947 1721.65 907.009 1723.04 912.988 1718.61 C 918.561 1699.31 915.954 1658.85 915.956 1637.36 L 915.958 1519.91 C 915.966 1500.5 918.339 1479.32 916.479 1460.16 C 915.552 1450.61 907.773 1442.21 903.787 1433.63 C 891.693 1407.61 897.445 1379.64 895.064 1352.13 L 880.155 1352.13 z M 1081.67 551.093 C 1080.73 558.405 1081.47 566.257 1081.67 573.638 C 1126.79 583.332 1162.39 644.853 1168.98 647.173 C 1155.1 606.338 1121.22 568.539 1081.67 551.093 z M 961.089 543.669 C 963.407 553.633 965.534 563.635 967.671 573.638 C 992.813 556.238 1032.58 555.41 1059.95 566.982 C 1061.13 559.283 1062.74 551.425 1063.37 543.669 C 1031.36 531.672 993.031 531.274 961.089 543.669 z M 951.683 989.028 L 937.543 993.445 C 937.433 1007.04 936.293 1021.58 937.543 1035.08 C 950.273 1062.2 1032.37 1075.86 1059.6 1064.56 C 1077.98 1056.94 1079.51 1027.09 1086.38 1010.59 L 1086.79 1009.63 C 1085.75 1000.53 1085.65 992.709 1086.79 983.569 C 1031.49 1002.5 1008.65 1003.45 951.683 989.028 z"/>
<path transform="translate(0,0)" fill="rgb(254,195,68)" d="M 915.945 998.976 C 919.886 1000.06 918.522 1006.71 918.476 1010.27 L 918.16 1061.38 C 918 1103.41 921.489 1140.01 972.672 1141.88 C 992.206 1142.59 1070.64 1143.93 1084.69 1140.5 C 1113.29 1133.51 1106.93 1101.1 1106.93 1079.07 L 1106.98 998.976 C 1122.47 1006.7 1139.02 1009.75 1154.98 1016.2 L 1154.96 1117.97 C 1154.89 1155.79 1146.85 1164.04 1168.98 1195.04 C 1168.18 1211.4 1168.9 1228.11 1168.98 1244.5 C 1169.39 1335.26 1181.95 1331.32 1098.16 1331.3 L 924.042 1331.33 C 904.976 1331.4 869.057 1338.55 863.992 1312.4 C 860.482 1294.28 861.047 1212.25 863.104 1192.95 C 864.156 1183.08 870.33 1174.42 870.611 1164.47 C 871.919 1118.11 870.529 1062.49 869.382 1016.2 C 884.946 1010.48 900.626 1005.37 915.945 998.976 z"/>
<path transform="translate(0,0)" fill="rgb(235,241,243)" d="M 972.814 1252.2 L 1061.2 1252.2 C 1071.34 1252.15 1157.19 1245.14 1128.55 1277.72 C 1120.91 1286.42 1076.4 1284.32 1063.37 1284.95 C 1047.91 1284.96 862.853 1297.02 905.882 1256.95 C 913.723 1249.65 960.105 1252.15 972.814 1252.2 z"/>
<path transform="translate(0,0)" fill="rgb(201,223,232)" d="M 895.064 1352.13 L 1151.94 1352.13 C 1184.33 1428.61 1129.78 1437.65 1134.02 1464.57 C 1124.15 1466.16 1115.88 1467.77 1106.98 1472.48 C 1108.56 1492.35 1107.02 1512.39 1106.99 1532.31 L 1106.93 1655.02 C 1106.93 1668.89 1101.56 1713.53 1112.73 1723.43 C 1120.22 1730.07 1126.81 1718.26 1134.02 1727.07 C 1122.84 1742.56 1106.22 1757.33 1085.5 1751.41 C 1045.98 1740.12 1054.75 1674.3 1053.42 1642.45 L 1046.85 1514.2 C 1046.04 1497.93 1049.47 1420.2 1032.96 1417.09 C 965.606 1404.39 981.549 1435.59 979.124 1488.25 L 971.739 1641.76 C 970.072 1674.43 978.468 1763.67 921.911 1751.72 C 905.643 1748.29 898.076 1736.17 889.88 1723.23 C 896.947 1721.65 907.009 1723.04 912.988 1718.61 C 918.561 1699.31 915.954 1658.85 915.956 1637.36 L 915.958 1519.91 C 915.966 1500.5 918.339 1479.32 916.479 1460.16 C 915.552 1450.61 907.773 1442.21 903.787 1433.63 C 891.693 1407.61 897.445 1379.64 895.064 1352.13 z"/>
<path transform="translate(0,0)" fill="url(#Gradient3)" d="M 967.671 573.638 C 992.813 556.238 1032.58 555.41 1059.95 566.982 C 1056.66 599.638 1045.49 649.695 1045.75 679.984 C 1045.85 691.057 1056.68 693.414 1062.14 684.546 C 1072.39 667.911 1071.18 595.627 1081.67 573.638 C 1126.79 583.332 1162.39 644.853 1168.98 647.173 C 1182.42 667.853 1183.37 698.815 1184.28 722.806 C 1232.9 730.592 1212.76 770.806 1170.53 775.278 C 1152.66 777.171 1134.1 776.355 1116.14 776.363 L 915.477 776.355 C 887.795 776.34 845.113 783.526 821.673 764.698 C 806.61 753.248 808.445 740.567 821.673 728.856 C 826.939 726.336 832.689 725.174 838.044 722.806 C 843.347 730.836 848.484 723.235 852.169 717.641 C 859.932 676.799 888.55 627.783 919.176 600.27 C 924.369 595.605 945.006 580.918 947.435 577.299 C 953.256 603.209 955.39 668.885 963.642 685.49 C 966.654 691.551 974.361 691.986 979.472 688.218 C 988.062 681.885 967.029 594.477 967.618 574.975 L 967.671 573.638 z"/>
<path transform="translate(0,0)" fill="rgb(39,54,75)" d="M 851.007 737.028 C 864.044 735.109 878.805 736.851 892.079 736.989 L 1115.12 737.034 C 1130.91 737.025 1172.23 728.96 1176.82 747.063 C 1172.47 761.896 1113.77 756.368 1101.73 756.289 L 921.589 756.35 C 905.397 756.406 863.729 761.587 851.007 751.733 C 850.327 746.49 850.386 742.249 851.007 737.028 z"/>
<path transform="translate(0,0)" fill="url(#Gradient2)" d="M 838.044 722.806 C 843.347 730.836 848.484 723.235 852.169 717.641 C 851.666 724.038 850.923 730.611 851.007 737.028 C 850.386 742.249 850.327 746.49 851.007 751.733 C 839.671 751.642 829.741 757.014 821.673 764.698 C 806.61 753.248 808.445 740.567 821.673 728.856 C 826.939 726.336 832.689 725.174 838.044 722.806 z"/>
<path transform="translate(0,0)" fill="rgb(255,206,172)" d="M 821.673 764.698 C 806.61 753.248 808.445 740.567 821.673 728.856 C 822.727 732.804 823.935 736.77 824.729 740.777 C 833.785 743.962 841.434 749.766 851.007 751.733 C 839.671 751.642 829.741 757.014 821.673 764.698 z"/>
<path transform="translate(0,0)" fill="rgb(201,223,232)" d="M 744.99 1252.2 C 741.453 1239.97 652.873 1198.65 634.997 1087.99 C 608.485 923.867 771.118 863.776 889.203 957.193 C 899.773 965.555 895.54 978.746 903.961 983.569 C 738.474 1028.8 745.17 1104.46 744.99 1252.2 z"/>
<path transform="translate(0,0)" fill="rgb(201,223,232)" d="M 1151.94 993.445 C 1158.58 975.601 1245.98 932.659 1265.82 923.693 C 1321.08 898.717 1384.18 964.732 1403.57 1008.42 C 1432.54 1073.73 1344.25 1205.44 1308.06 1261.87 C 1301.89 1271.48 1292.4 1278.49 1303.27 1280.49 C 1296.8 1280.66 1290.29 1280.5 1283.82 1280.49 C 1283.82 1245.03 1283.78 1210.25 1285.77 1174.87 C 1289.89 1101.79 1231 997.987 1151.94 993.445 z"/>
<path transform="translate(0,0)" fill="rgb(150,214,222)" d="M 1086.79 1009.63 C 1090.22 1014.22 1087.85 1114.89 1083.05 1119.8 C 1071.36 1122.83 980.323 1123.08 965.218 1121.33 C 928.991 1117.13 935.272 1059.85 937.543 1035.08 C 950.273 1062.2 1032.37 1075.86 1059.6 1064.56 C 1077.98 1056.94 1079.51 1027.09 1086.38 1010.59 L 1086.79 1009.63 z"/>
<path transform="translate(0,0)" fill="rgb(150,214,222)" d="M 1174.98 1050.12 C 1222.56 1068.52 1247.31 1135.6 1242.32 1183.99 C 1167.86 1184.14 1174.65 1187.32 1174.92 1116 C 1175 1094.08 1174.24 1072.02 1174.98 1050.12 z"/>
<path transform="translate(0,0)" fill="rgb(150,214,222)" d="M 851.007 1038.69 C 851.76 1063.82 851.002 1089.25 851.047 1114.41 C 851.196 1197.13 853.329 1184.09 777.455 1183.99 C 781.303 1183.44 785.096 1183.77 788.956 1183.99 C 787.877 1131.7 800.295 1079.56 851.007 1053.3 C 850.722 1048.43 850.88 1043.57 851.007 1038.69 z"/>
<path transform="translate(0,0)" fill="rgb(201,223,232)" d="M 1496.13 983.569 C 1512.79 919.205 1581.7 896.624 1601.04 852.684 C 1602.27 912.556 1549.39 964.468 1496.13 983.569 z"/>
<path transform="translate(0,0)" fill="rgb(235,241,243)" d="M 498.983 654.492 C 502.667 649.093 505.156 645.65 505.745 638.909 L 506.552 638.598 C 512.929 670.433 569.595 749.811 591.611 772.949 C 611.019 793.347 631.84 795.781 629.48 824.232 C 569.831 782.51 522.154 724.087 498.983 654.492 z"/>
<path transform="translate(0,0)" fill="rgb(235,241,243)" d="M 451.191 756.321 C 459.836 765.683 465.305 799.224 464.439 777.919 C 464.124 770.182 465.809 767.914 462.261 760.511 L 462.423 759.108 C 486.112 801.338 513.211 841.848 551.473 872.503 C 561.314 880.387 576.664 889.059 574.348 903.839 C 522.577 877.459 466.308 812.644 451.191 756.321 z"/>
<path transform="translate(0,0)" fill="rgb(201,223,232)" d="M 443.499 892.676 C 447.752 898.651 447.839 908.202 453.492 912.826 C 453.472 905.722 455.775 901.356 450.685 895.373 L 448.387 892.647 L 448.508 891.642 C 457.455 900.603 476.768 922.059 482.553 932.623 C 496.56 944.571 510.609 958.786 526.31 968.382 C 541.768 977.831 565.91 981.157 564.835 998.976 C 528.61 991.802 490.913 966.08 469.437 936.229 C 455.602 928.662 446.144 907.496 443.499 892.676 z"/>
<path transform="translate(0,0)" fill="rgb(235,241,243)" d="M 443.499 892.676 C 447.752 898.651 447.839 908.202 453.492 912.826 C 453.472 905.722 455.775 901.356 450.685 895.373 L 448.387 892.647 L 448.508 891.642 C 457.455 900.603 476.768 922.059 482.553 932.623 C 477.311 930.94 449.822 894.313 457.859 912.37 C 461.69 920.978 478.444 930.689 483.409 945.708 L 483.026 946.649 C 477.613 944.582 474.89 938.446 469.437 936.229 C 455.602 928.662 446.144 907.496 443.499 892.676 z"/>
<path transform="translate(0,0)" fill="rgb(201,223,232)" d="M 515.432 1142.01 C 551.738 1175.55 629.081 1180.21 633.082 1195.04 C 591.135 1194.04 535.91 1194.27 511.481 1152.14 C 517.145 1150.58 513.269 1146.28 515.432 1142.01 z"/>
<path transform="translate(0,0)" fill="rgb(235,241,243)" d="M 469.437 1025.97 C 492.981 1047.06 514.959 1064.8 545.657 1074.4 C 557.493 1078.1 581.075 1079.02 580.522 1095.16 C 555.551 1095.26 530.313 1087.91 508.238 1076.49 C 510.711 1076.7 512.718 1075.81 515 1075 L 515.375 1073.77 C 501.538 1062.29 470.762 1046.21 469.437 1025.97 z"/>
<path transform="translate(0,0)" fill="rgb(201,223,232)" d="M 603.503 1252.2 C 612.335 1251.08 677.797 1268.49 696.185 1270.59 C 694.776 1271.02 672.379 1275.32 670.748 1275.46 C 683.006 1281.01 695.678 1277.04 708.082 1280.49 C 675.663 1280.58 617.698 1291.46 603.503 1252.2 L 603.503 1252.2 z"/>
<path transform="translate(0,0)" fill="rgb(201,223,232)" d="M 603.503 1252.2 C 626.612 1258.19 610.121 1275.98 670.748 1275.46 C 683.006 1281.01 695.678 1277.04 708.082 1280.49 C 675.663 1280.58 617.698 1291.46 603.503 1252.2 z"/>
<path transform="translate(0,0)" fill="rgb(39,54,75)" d="M 1547.8 1221.17 C 1587.07 1218.92 1595.44 1250.72 1612.97 1279.49 L 1746.72 1501.56 C 1759.75 1522.72 1811.56 1588.52 1759.5 1600.69 C 1742.98 1604.55 1712.74 1602.31 1694.51 1602.3 L 1566.25 1602.24 L 1428.37 1602.24 C 1407.68 1602.25 1386.35 1603.58 1365.76 1602.48 C 1339.55 1601.09 1321.1 1577.24 1333.79 1552.81 C 1345.97 1529.39 1360.85 1506.75 1374.5 1484.14 L 1497.54 1279.24 C 1510.43 1257.51 1521.85 1229.38 1547.8 1221.17 z M 1562.81 1559.85 C 1598.43 1551.18 1603.18 1518.64 1579.88 1495.18 C 1599.96 1474.48 1591.62 1400.56 1591.17 1370.49 C 1590.81 1346.59 1578.7 1334 1554.86 1331.26 C 1543.52 1335.92 1531.73 1342.69 1527.02 1354.74 C 1521.28 1369.45 1516.88 1474.3 1537.02 1495.18 C 1508.79 1523.71 1524.91 1562.66 1562.81 1559.85 z M 1571.27 1247.98 C 1555.55 1237.59 1546.29 1238.89 1536.37 1254.65 C 1507.76 1300.07 1481.95 1347.44 1453.85 1393.23 L 1393.38 1493.96 C 1383.11 1510.97 1328.06 1577.61 1366.75 1582.06 C 1374.88 1566.1 1385.83 1550.93 1395.32 1535.71 L 1448.9 1448.43 C 1478.66 1398.87 1535.72 1288.89 1571.27 1247.98 z"/>
<path transform="translate(0,0)" fill="url(#Gradient1)" d="M 1571.27 1247.98 C 1591.06 1286.84 1615.46 1323.97 1638.09 1361.24 L 1746.98 1542.84 C 1752.38 1551.68 1758.45 1560.32 1763.08 1569.59 C 1750.26 1593.05 1675.31 1581.98 1647.02 1582.02 L 1366.75 1582.06 C 1374.88 1566.1 1385.83 1550.93 1395.32 1535.71 L 1448.9 1448.43 C 1478.66 1398.87 1535.72 1288.89 1571.27 1247.98 z M 1537.02 1495.18 C 1508.79 1523.71 1524.91 1562.66 1562.81 1559.85 C 1598.43 1551.18 1603.18 1518.64 1579.88 1495.18 C 1599.96 1474.48 1591.62 1400.56 1591.17 1370.49 C 1590.81 1346.59 1578.7 1334 1554.86 1331.26 C 1543.52 1335.92 1531.73 1342.69 1527.02 1354.74 C 1521.28 1369.45 1516.88 1474.3 1537.02 1495.18 z"/>
<path transform="translate(0,0)" fill="rgb(39,54,75)" d="M 1554.86 1352.13 C 1560.95 1352.25 1565.63 1352.48 1569.72 1357.65 C 1573.34 1372.02 1581.83 1475.11 1559.85 1483.27 C 1535.42 1482.07 1544.75 1430.07 1544.77 1411.05 C 1544.79 1393.33 1537.84 1363.59 1554.86 1352.13 z"/>
<path transform="translate(0,0)" fill="rgb(39,54,75)" d="M 1552.49 1507.65 C 1557.92 1505.77 1563.95 1506.95 1568.26 1510.76 C 1572.58 1514.56 1574.51 1520.4 1573.31 1526.03 C 1572.11 1531.65 1567.98 1536.2 1562.49 1537.92 C 1554.18 1540.52 1545.32 1535.98 1542.59 1527.71 C 1539.85 1519.44 1544.26 1510.51 1552.49 1507.65 z"/>
<path transform="translate(0,0)" fill="rgb(39,54,75)" d="M 989.07 272.977 C 1041.56 269.248 1106.09 276.966 1150.35 306.947 C 1182.01 328.392 1200.88 363.404 1175.73 397.934 C 1146.57 437.968 1087.91 446.549 1042.54 453.393 C 988.579 453.72 922.393 450.567 876.882 418.17 C 847.474 397.235 831.951 360.932 855.672 329.478 C 885.837 289.482 942.541 279.419 989.07 272.977 z M 1032.49 433.941 C 1072.43 430.769 1129.93 421.542 1157.28 388.912 C 1175.25 367.484 1166.54 344.297 1146.43 328.22 C 1111.48 300.279 1045.46 288.699 1001.6 292.926 C 953.167 293.822 810.497 334.795 881.332 396.513 C 917.959 428.426 985.317 435.428 1032.49 433.941 z"/>
<path transform="translate(0,0)" fill="rgb(39,54,75)" d="M 1001.6 322.581 C 1121.18 314.267 1212.71 388.396 1028.49 404.928 C 993.9 405.842 934.698 400.508 907.175 378.225 C 861.411 341.174 983.193 323.504 1001.6 322.581 z M 1004.62 342.964 C 975.801 342.997 944.088 351.463 918.245 363.748 C 942.33 374.877 965.117 379.984 991.071 384.5 C 1001.69 376.33 990.239 346.032 1017.38 344.881 L 1018.73 344.837 L 1017.42 344.228 L 1019.92 344.771 C 1014.73 344.606 1009.62 344.579 1004.62 342.964 z M 1028.49 342.964 C 1038.05 350.336 1057.63 357.128 1059.28 370.431 C 1060.32 378.749 1056.27 380.319 1067.16 379.93 C 1082.71 377.77 1099.47 371.308 1113.14 363.748 C 1092.76 352.757 1068.43 346.797 1045.67 342.964 C 1039.5 345.279 1034.76 344.337 1028.46 343.341 L 1028.49 342.964 z"/>
<path transform="translate(0,0)" fill="rgb(235,241,243)" d="M 1004.62 342.964 C 1017.73 342.076 1032.68 341.374 1045.67 342.964 C 1039.5 345.279 1034.76 344.337 1028.46 343.341 L 1028.49 342.964 C 1038.05 350.336 1057.63 357.128 1059.28 370.431 C 1060.32 378.749 1056.27 380.319 1067.16 379.93 C 1042.98 386.114 1015.89 384.878 991.071 384.5 C 1001.69 376.33 990.239 346.032 1017.38 344.881 L 1018.73 344.837 L 1017.42 344.228 L 1019.92 344.771 C 1014.73 344.606 1009.62 344.579 1004.62 342.964 z"/>
<path transform="translate(0,0)" fill="rgb(39,54,75)" d="M 633.082 366.867 C 637.919 367.336 642.701 369.59 644.96 374.15 C 651.509 387.371 601.957 404.185 593.387 408.57 C 443.988 485.014 330.263 637.316 296.643 801.093 C 293.743 815.219 296.134 843.466 280.507 849.237 C 252.18 848.324 290.357 743.462 295.968 727.523 C 358.17 550.837 469.67 444.799 633.082 366.867 z"/>
<path transform="translate(0,0)" fill="rgb(39,54,75)" d="M 1736.56 916.849 C 1766.48 917.571 1749.45 1017.45 1746.7 1040.2 C 1741.53 1082.82 1701.67 1247.31 1672 1270.58 C 1646.86 1271.46 1669.49 1235.05 1673.46 1225.08 C 1714.62 1121.57 1732.22 1044.03 1731.3 932.306 C 1731.25 925.528 1731.78 921.79 1736.56 916.849 z"/>
</svg>